<?xml version="1.0" standalone="no"?>
<!DOCTYPE svg PUBLIC "-//W3C//DTD SVG 20010904//EN"
 "http://www.w3.org/TR/2001/REC-SVG-20010904/DTD/svg10.dtd">
<svg version="1.0" xmlns="http://www.w3.org/2000/svg"
 width="300.000000pt" height="300.000000pt" viewBox="0 0 300.000000 300.000000"
 preserveAspectRatio="xMidYMid meet">
<metadata>
Created by potrace 1.14, written by Peter Selinger 2001-2017
</metadata>
<g transform="translate(0.000000,300.000000) scale(0.100000,-0.100000)"
fill="#000000" stroke="none">
<path d="M1736 2932 c-3 -5 1 -9 9 -9 8 0 12 4 9 9 -3 4 -7 8 -9 8 -2 0 -6 -4
-9 -8z"/>
<path d="M1792 2889 c-12 -19 -11 -19 8 -9 11 6 25 8 30 5 6 -3 10 -4 10 -1 0
3 -8 10 -18 15 -14 7 -21 5 -30 -10z"/>
<path d="M1750 2895 c0 -5 5 -17 10 -25 5 -8 10 -10 10 -5 0 6 -5 17 -10 25
-5 8 -10 11 -10 5z"/>
<path d="M1363 2832 c-6 -4 44 -6 112 -4 114 3 123 2 122 -15 -1 -10 -8 -22
-15 -27 -14 -8 -152 -15 -316 -16 -70 0 -87 -3 -78 -12 13 -13 127 -13 251 -1
62 5 64 5 58 -16 -3 -14 -1 -21 9 -21 10 0 6 -8 -10 -24 -15 -13 -26 -28 -26
-34 0 -6 -5 -14 -12 -18 -7 -5 -8 -3 -3 6 5 8 -1 7 -16 -3 -32 -23 -71 -22
-87 3 -8 14 -23 20 -46 20 -19 0 -38 5 -41 10 -3 6 -19 10 -36 10 -24 0 -29 4
-29 25 0 15 -6 25 -14 25 -8 0 -16 4 -18 9 -1 5 -10 2 -18 -7 -13 -14 -12 -15
2 -10 20 8 38 -10 38 -38 0 -25 23 -34 87 -34 83 0 104 -33 27 -45 -43 -6 -45
-8 -30 -24 9 -10 13 -21 9 -24 -3 -4 2 -7 12 -7 10 0 28 -9 40 -20 28 -26 64
-17 58 15 -3 12 0 26 6 29 7 4 11 -1 11 -13 0 -28 12 -33 102 -37 88 -4 120
-14 44 -14 -58 0 -81 -12 -101 -50 -16 -32 -12 -76 8 -77 7 0 29 -4 50 -8 24
-5 37 -4 37 4 0 6 -6 8 -14 5 -15 -6 -36 23 -36 50 0 20 31 36 57 30 18 -5 20
-10 12 -37 -6 -21 -5 -33 1 -35 5 -2 10 -8 10 -14 0 -14 28 -39 32 -28 2 5 12
11 23 13 36 7 55 19 48 31 -4 6 1 5 11 -3 14 -12 19 -12 26 -2 4 8 12 11 18 7
5 -3 12 1 16 9 3 8 1 17 -4 20 -4 3 -10 -1 -13 -7 -2 -8 -8 -9 -13 -4 -5 5 -4
11 4 13 21 8 -17 43 -46 43 -14 0 -22 3 -19 7 10 9 57 10 51 1 -8 -12 88 -78
115 -78 44 0 73 -12 67 -26 -3 -7 0 -19 7 -26 17 -18 20 -64 7 -104 -11 -33
-10 -37 29 -83 23 -27 41 -54 41 -61 0 -7 8 -10 20 -7 30 8 42 -14 29 -52 -6
-17 -9 -58 -7 -91 2 -33 2 -57 0 -55 -12 12 -42 -19 -48 -50 -9 -51 -103 -141
-167 -160 -37 -11 -59 -12 -81 -5 -17 5 -43 12 -58 15 -15 3 -29 14 -33 25 -9
28 -28 25 -42 -6 -10 -22 -10 -25 3 -20 19 7 18 -18 -2 -34 -13 -11 -16 -10
-21 8 -3 12 -9 22 -15 22 -5 0 -4 -8 2 -19 5 -11 10 -32 11 -48 1 -28 1 -28 8
-3 4 14 14 26 23 28 30 6 19 -58 -16 -99 -17 -20 -39 -50 -48 -68 -20 -36 -38
-33 -38 7 0 61 -8 70 -61 69 -27 -1 -54 4 -61 11 -9 9 -3 11 25 9 34 -3 42 3
38 26 0 4 6 7 14 7 17 0 20 16 5 25 -6 4 -8 11 -4 16 3 6 -13 17 -36 26 -34
14 -41 21 -37 39 4 23 -12 23 -41 1 -8 -6 -21 -12 -30 -13 -10 -1 -32 -5 -50
-7 -38 -7 -89 8 -117 34 -13 12 -29 16 -43 12 -28 -7 -62 21 -62 53 0 37 -19
76 -40 81 -16 4 -20 14 -20 43 0 21 -7 43 -15 50 -17 14 -20 41 -6 56 12 13
22 112 11 119 -5 3 0 21 11 40 18 30 19 38 8 69 -11 30 -10 40 6 69 12 22 16
43 11 60 -8 32 -22 35 -29 6 -5 -18 -8 -19 -26 -7 -22 14 -51 75 -52 111 0 19
-2 18 -14 -8 -7 -16 -19 -45 -26 -63 -9 -24 -20 -35 -42 -39 -22 -4 -34 -16
-46 -44 -10 -21 -33 -49 -51 -61 -28 -19 -40 -40 -67 -118 -34 -94 -34 -96
-30 -240 4 -136 7 -152 42 -255 20 -60 60 -152 88 -205 27 -52 49 -96 48 -98
-2 -1 0 -16 4 -32 4 -18 11 -27 17 -24 7 4 8 2 4 -4 -3 -6 5 -39 20 -74 22
-54 27 -85 35 -223 4 -88 15 -198 23 -244 16 -86 15 -108 -10 -174 -20 -54
-18 -63 25 -110 43 -46 58 -98 35 -118 -11 -9 -13 -24 -8 -60 6 -44 -14 -167
-34 -209 -4 -8 -7 -33 -7 -55 0 -39 1 -40 37 -43 41 -3 96 24 80 40 -12 12 -3
50 9 42 5 -3 11 13 15 34 6 38 11 44 67 70 5 2 7 -39 5 -92 -2 -53 0 -96 5
-96 4 0 7 26 7 58 0 76 8 101 30 99 15 -1 16 -4 8 -15 -14 -16 12 -11 116 25
38 12 73 23 77 23 4 0 6 -33 4 -72 -4 -68 -4 -69 4 -21 14 83 21 105 34 100
12 -3 60 -64 83 -103 9 -16 10 -14 6 13 -3 22 0 33 8 33 7 0 9 8 4 23 -15 47
-15 51 -3 32 16 -25 39 -120 39 -162 0 -37 14 -42 43 -16 15 13 18 14 12 3 -6
-12 -5 -13 5 -3 11 10 11 26 0 90 -7 43 -19 93 -27 112 -7 19 -11 36 -8 39 3
3 5 0 5 -7 0 -8 12 -11 38 -7 20 3 31 2 25 0 -15 -6 -18 -110 -4 -118 4 -3 6
6 3 19 -3 20 0 25 18 25 20 0 92 -64 83 -74 -3 -3 5 -2 18 1 34 9 51 -20 33
-55 -19 -37 -18 -42 11 -40 17 2 24 7 21 18 -2 8 -7 33 -11 54 -3 21 -13 50
-22 63 -11 16 -14 35 -9 63 5 29 2 41 -9 48 -13 6 -14 14 -6 35 6 16 7 28 1
32 -5 3 6 29 25 57 40 58 40 57 19 101 -16 34 -16 36 15 96 24 47 31 75 31
117 0 77 39 164 107 238 30 34 74 88 98 121 58 81 218 393 211 412 -3 8 -2 12
3 8 17 -10 68 145 96 290 46 249 50 406 11 500 -24 58 -107 175 -119 168 -6
-3 -7 -1 -3 6 12 18 -109 138 -147 145 -23 5 -39 18 -56 45 -31 50 -64 56
-134 24 -28 -13 -54 -29 -58 -34 -3 -5 -14 0 -25 12 -27 30 -91 61 -99 49 -4
-6 -12 -10 -18 -9 -30 4 -47 -3 -68 -26 -35 -36 -42 -31 -37 27 5 45 11 57 42
84 l36 32 -35 31 -36 31 -122 0 c-67 0 -127 -4 -134 -8z m264 -58 c-3 -3 -12
-4 -19 -1 -8 3 -5 6 6 6 11 1 17 -2 13 -5z m-102 -99 c0 -23 -1 -24 -12 -8 -7
9 -13 20 -13 25 0 4 6 8 13 8 6 0 12 -11 12 -25z m-22 -19 c7 -17 -18 -42 -27
-27 -4 5 -2 12 4 16 6 4 8 11 5 16 -4 5 -2 9 3 9 6 0 12 -6 15 -14z m286 -23
c31 -38 15 -43 -20 -5 -20 21 -25 32 -15 32 8 0 24 -12 35 -27z m-189 -14 c0
-35 -24 -44 -38 -14 -11 24 -2 42 23 42 10 0 15 -10 15 -28z m66 -6 c-10 -10
-19 5 -10 18 6 11 8 11 12 0 2 -7 1 -15 -2 -18z m67 -19 c-7 -20 -10 -18 -15
11 -4 20 -2 23 8 14 7 -6 10 -17 7 -25z m-188 16 c3 -6 -1 -7 -9 -4 -18 7 -21
14 -7 14 6 0 13 -4 16 -10z m-185 -35 c-10 -12 -10 -18 0 -30 9 -11 9 -15 1
-15 -18 0 -25 29 -11 45 7 8 15 15 17 15 3 0 0 -7 -7 -15z m754 -60 c-4 -8 -8
-15 -10 -15 -2 0 -4 7 -4 15 0 8 4 15 10 15 5 0 7 -7 4 -15z m-473 -12 c13
-17 13 -17 -6 -3 -11 8 -22 16 -24 17 -2 2 0 3 6 3 6 0 17 -8 24 -17z m423
-45 c-10 -15 -34 -8 -34 10 0 14 2 15 10 2 8 -12 10 -12 10 5 0 16 2 17 9 5 6
-8 7 -18 5 -22z m-207 16 c-3 -3 -12 -4 -19 -1 -8 3 -5 6 6 6 11 1 17 -2 13
-5z m-197 -24 c0 -5 -4 -10 -10 -10 -5 0 -10 5 -10 10 0 6 5 10 10 10 6 0 10
-4 10 -10z m265 -60 c3 -5 1 -10 -4 -10 -6 0 -11 5 -11 10 0 6 2 10 4 10 3 0
8 -4 11 -10z m-305 -6 c0 -8 -19 -13 -24 -6 -3 5 1 9 9 9 8 0 15 -2 15 -3z
m750 -168 c0 -2 -7 -9 -15 -16 -13 -11 -14 -10 -9 4 5 14 24 23 24 12z m-70
-120 c0 -3 -4 -8 -10 -11 -5 -3 -10 -1 -10 4 0 6 5 11 10 11 6 0 10 -2 10 -4z
m-1640 -202 c0 -8 -4 -12 -10 -9 -5 3 -10 10 -10 16 0 5 5 9 10 9 6 0 10 -7
10 -16z m1457 -106 c-3 -8 -6 -5 -6 6 -1 11 2 17 5 13 3 -3 4 -12 1 -19z
m-750 -92 c-3 -6 -8 -10 -13 -9 -5 1 -10 -10 -10 -23 l-2 -25 24 28 c13 15 24
22 24 15 0 -8 5 -10 13 -6 8 5 8 3 -2 -9 -7 -9 -17 -14 -22 -11 -5 3 -9 -3 -9
-14 0 -10 -9 -27 -19 -36 -11 -10 -22 -29 -25 -42 -11 -43 -26 -15 -26 47 0
46 3 59 15 59 8 0 15 5 15 11 0 5 -6 7 -12 3 -8 -4 -10 -3 -5 2 5 5 14 9 20 9
7 1 11 6 10 13 -2 6 4 9 13 5 8 -3 13 -11 11 -17z m267 9 c3 -8 1 -15 -3 -15
-5 0 -11 7 -15 15 -3 8 -1 15 3 15 5 0 11 -7 15 -15z m46 -19 c0 -2 -7 -9 -15
-16 -12 -10 -15 -10 -15 4 0 9 7 16 15 16 8 0 15 -2 15 -4z m-40 -28 c0 -18
-2 -20 -9 -8 -6 8 -7 18 -5 22 9 14 14 9 14 -14z m55 -178 c3 5 14 10 23 9 16
0 16 -1 0 -7 -13 -5 -15 -11 -8 -22 12 -18 13 -41 3 -38 -13 2 -43 -14 -43
-23 0 -6 10 -5 23 1 l22 11 -22 -18 c-23 -19 -46 -69 -38 -83 9 -14 -88 10
-107 27 -16 15 -17 18 -4 31 12 12 18 13 29 4 11 -9 18 -7 35 11 15 16 19 26
12 33 -15 15 5 64 27 65 16 1 16 2 -1 6 -15 4 -16 7 -5 14 10 6 19 3 31 -11
10 -12 19 -16 23 -10z m45 -14 c0 -3 -4 -8 -10 -11 -5 -3 -10 -1 -10 4 0 6 5
11 10 11 6 0 10 -2 10 -4z m-42 -121 c-3 -3 -9 2 -12 12 -6 14 -5 15 5 6 7 -7
10 -15 7 -18z m-18 -21 c0 -8 -5 -12 -10 -9 -6 4 -8 11 -5 16 9 14 15 11 15
-7z m-185 -254 c3 -5 1 -10 -4 -10 -6 0 -11 5 -11 10 0 6 2 10 4 10 3 0 8 -4
11 -10z m497 -32 c-7 -7 -12 -8 -12 -2 0 14 12 26 19 19 2 -3 -1 -11 -7 -17z
m-952 -38 c0 -5 -4 -10 -10 -10 -5 0 -10 5 -10 10 0 6 5 10 10 10 6 0 10 -4
10 -10z m335 -280 c-3 -5 -11 -10 -16 -10 -6 0 -7 5 -4 10 3 6 11 10 16 10 6
0 7 -4 4 -10z m-291 -82 c-3 -5 -12 -1 -19 9 -10 13 -10 21 -2 31 9 11 12 10
19 -8 4 -12 5 -26 2 -32z m-51 -58 c3 -11 1 -23 -4 -26 -5 -3 -9 6 -9 20 0 31
6 34 13 6z m-13 -210 c0 -13 -11 -13 -30 0 -12 8 -11 10 8 10 12 0 22 -4 22
-10z m-35 -89 c3 -5 2 -12 -3 -15 -5 -3 -9 1 -9 9 0 17 3 19 12 6z m300 -21
c3 -5 1 -10 -4 -10 -6 0 -11 5 -11 10 0 6 2 10 4 10 3 0 8 -4 11 -10z m-259
-135 c2 -12 -2 -13 -17 -5 -20 11 -24 22 -12 34 8 8 26 -9 29 -29z m536 -10
c3 -14 1 -25 -3 -25 -5 0 -9 11 -9 25 0 14 2 25 4 25 2 0 6 -11 8 -25z m235
-87 c-3 -8 -6 -5 -6 6 -1 11 2 17 5 13 3 -3 4 -12 1 -19z"/>
<path d="M1630 1448 c0 -12 3 -18 7 -14 11 10 12 36 2 36 -5 0 -9 -10 -9 -22z"/>
<path d="M1660 1440 c0 -11 -7 -20 -16 -20 -8 0 -13 -4 -10 -8 6 -10 -1 -20
-37 -52 -16 -14 -27 -20 -25 -15 2 6 -1 11 -7 13 -5 1 -10 -4 -10 -10 0 -8 11
-12 28 -10 18 2 26 -1 22 -7 -3 -6 1 -11 9 -11 9 0 16 7 16 15 0 8 -8 15 -17
15 -15 0 -14 2 4 15 20 14 63 75 63 89 0 3 -4 6 -10 6 -5 0 -10 -9 -10 -20z"/>
<path d="M1650 2836 c0 -2 14 -14 30 -26 17 -12 30 -19 30 -16 0 2 -13 14 -30
26 -16 12 -30 19 -30 16z"/>
<path d="M1303 2823 c9 -2 23 -2 30 0 6 3 -1 5 -18 5 -16 0 -22 -2 -12 -5z"/>
<path d="M1107 2763 c-12 -12 -7 -23 11 -23 13 0 14 2 3 9 -11 7 -11 9 0 14 8
3 9 6 3 6 -6 1 -14 -2 -17 -6z"/>
<path d="M1448 2743 c6 -2 18 -2 25 0 6 3 1 5 -13 5 -14 0 -19 -2 -12 -5z"/>
<path d="M1390 2700 l-35 -7 40 -2 c22 0 47 4 55 9 12 8 11 9 -5 9 -11 -1 -36
-5 -55 -9z"/>
<path d="M1187 2604 c-12 -12 4 -24 31 -24 20 0 23 3 13 9 -8 5 -21 7 -29 3
-10 -3 -13 -1 -8 6 8 13 3 16 -7 6z"/>
<path d="M1152 2574 c-14 -16 -5 -18 17 -5 7 5 9 11 5 14 -5 3 -15 -1 -22 -9z"/>
<path d="M1400 2510 c-22 -7 -11 -15 15 -10 6 1 4 -4 -2 -11 -7 -7 -13 -21
-13 -32 0 -10 -4 -15 -10 -12 -5 3 -10 1 -10 -4 0 -6 3 -11 8 -11 13 1 59 44
71 68 11 20 9 22 -11 21 -13 -1 -34 -5 -48 -9z"/>
<path d="M1325 2400 c-3 -6 1 -7 9 -4 18 7 21 14 7 14 -6 0 -13 -4 -16 -10z"/>
<path d="M1785 2398 c5 -12 -1 -18 -24 -23 -37 -8 -37 -12 -6 -47 25 -29 70
-44 81 -27 9 16 -4 51 -31 84 -14 17 -23 23 -20 13z m8 -35 c-7 -2 -13 -9 -13
-14 0 -6 8 -5 20 1 20 11 21 9 24 -22 1 -15 -36 -17 -46 -3 -14 19 -8 45 10
44 10 0 12 -3 5 -6z"/>
<path d="M1310 2278 c-11 -18 -20 -37 -20 -42 0 -12 1 -10 28 37 26 45 19 50
-8 5z"/>
<path d="M1784 2244 c4 -11 7 -41 8 -67 3 -52 14 -54 20 -3 2 19 0 32 -4 30
-4 -3 -8 3 -8 13 0 10 -5 25 -11 33 -8 12 -9 11 -5 -6z"/>
<path d="M1161 2213 c-17 -19 -28 -93 -12 -93 6 0 11 5 11 11 0 5 5 7 10 4 6
-3 11 2 11 12 1 10 3 28 4 40 3 31 -8 43 -24 26z"/>
<path d="M1840 2200 c0 -5 5 -10 11 -10 5 0 7 5 4 10 -3 6 -8 10 -11 10 -2 0
-4 -4 -4 -10z"/>
<path d="M1251 2143 c-11 -13 -11 -17 5 -31 16 -15 17 -15 6 -1 -11 14 -9 17
11 21 17 3 30 -2 43 -18 19 -24 34 -30 34 -16 0 36 -75 70 -99 45z"/>
<path d="M1524 2131 c-12 -12 -1 -31 19 -31 16 0 18 -3 9 -9 -10 -6 -8 -10 8
-14 13 -3 23 0 26 8 4 10 12 11 29 5 30 -11 41 3 18 21 -12 10 -14 10 -9 2 4
-7 3 -13 -3 -13 -5 0 -13 5 -16 11 -4 6 -13 8 -21 5 -7 -3 -11 0 -8 7 4 11
-42 18 -52 8z"/>
<path d="M1792 2089 c-7 -12 -11 -24 -7 -27 7 -8 25 17 25 36 0 17 -3 15 -18
-9z"/>
<path d="M1210 2096 c0 -2 7 -7 16 -10 8 -3 12 -2 9 4 -6 10 -25 14 -25 6z"/>
<path d="M1810 2070 c0 -5 7 -10 16 -10 8 0 12 5 9 10 -3 6 -10 10 -16 10 -5
0 -9 -4 -9 -10z"/>
<path d="M1860 2061 c0 -6 4 -13 10 -16 6 -3 7 1 4 9 -7 18 -14 21 -14 7z"/>
<path d="M1201 2033 c-1 -18 4 -33 10 -33 19 0 -10 -28 -34 -33 -18 -3 -17 -5
6 -6 26 -1 27 -3 16 -23 -11 -20 -10 -22 3 -10 13 10 17 10 21 0 3 -10 6 -9
11 2 4 9 -2 42 -13 75 -17 52 -20 56 -20 28z"/>
<path d="M1773 2013 c-7 -18 -17 -33 -23 -33 -8 0 -8 6 0 20 7 14 7 20 0 20
-8 0 -15 -24 -8 -32 6 -8 -39 -48 -54 -48 -10 0 -17 -6 -15 -12 1 -7 -4 -12
-11 -10 -6 1 -11 -1 -10 -5 2 -5 0 -8 -3 -8 -12 0 -49 -38 -49 -49 0 -6 7 -2
15 8 8 11 15 15 15 9 0 -7 -7 -19 -16 -28 -16 -15 -16 -18 0 -33 13 -13 16
-14 12 -2 -4 9 7 29 24 47 16 18 30 38 30 45 0 8 12 21 28 30 43 26 84 74 80
95 -3 13 -7 10 -15 -14z"/>
<path d="M1237 2019 c7 -7 15 -10 18 -7 3 3 -2 9 -12 12 -14 6 -15 5 -6 -5z"/>
<path d="M1716 2003 c-6 -14 -5 -15 5 -6 7 7 10 15 7 18 -3 3 -9 -2 -12 -12z"/>
<path d="M1340 1930 c0 -13 18 -22 24 -11 3 5 -1 11 -9 15 -8 3 -15 1 -15 -4z"/>
<path d="M1290 1866 c0 -2 8 -10 18 -17 15 -13 16 -12 3 4 -13 16 -21 21 -21
13z"/>
<path d="M1360 1793 c24 -33 44 -41 55 -24 3 5 28 17 56 26 28 9 48 19 46 21
-2 2 -28 -4 -58 -14 -57 -20 -73 -19 -103 7 -15 12 -14 8 4 -16z"/>
<path d="M1592 1790 c0 -14 2 -19 5 -12 2 6 2 18 0 25 -3 6 -5 1 -5 -13z"/>
<path d="M1485 1684 c-12 -5 -7 -94 5 -94 4 0 5 11 2 25 -5 29 24 36 31 8 4
-16 5 -16 6 -1 0 9 9 19 19 21 15 4 15 5 0 6 -9 0 -20 10 -23 21 -6 19 -18 23
-40 14z m33 -22 c2 -7 -3 -12 -10 -12 -8 0 -15 7 -15 15 0 18 19 15 25 -3z"/>
<path d="M2357 899 c7 -7 15 -10 18 -7 3 3 -2 9 -12 12 -14 6 -15 5 -6 -5z"/>
<path d="M2160 889 c0 -5 5 -7 10 -4 6 3 10 8 10 11 0 2 -4 4 -10 4 -5 0 -10
-5 -10 -11z"/>
<path d="M1421 58 c-1 -20 4 -40 9 -43 12 -7 12 19 0 55 -7 22 -8 21 -9 -12z"/>
<path d="M1741 54 c0 -11 3 -14 6 -6 3 7 2 16 -1 19 -3 4 -6 -2 -5 -13z"/>
<path d="M1251 14 c0 -11 3 -14 6 -6 3 7 2 16 -1 19 -3 4 -6 -2 -5 -13z"/>
</g>
</svg>
